PathFileType	4	(X/Y/Z)	C:\Users\WrightLab\Desktop\Jo\P5V129.trc
DataRate	CameraRate	NumFrames	NumMarkers	Units	OrigDataRate	OrigDataStartFrame	OrigNumFrames
100.00	100.00	       32	19	mm	100.00	1	       671
Frame#	Time	Headset_Front			Headset_Back			Headset_Left			Headset_Right			Left_Shoulder			Right_Shoulder			Sternum			C7			Left Elbow			Right Elbow			Left Wrist			Right Wrist			Left ASIS			Right ASIS			S2			Left Knee			Right Knee			Left Ankle			Right Ankle			
		X1	Y1	Z1	X2	Y2	Z2	X3	Y3	Z3	X4	Y4	Z4	X5	Y5	Z5	X6	Y6	Z6	X7	Y7	Z7	X8	Y8	Z8	X9	Y9	Z9	X10	Y10	Z10	X11	Y11	Z11	X12	Y12	Z12	X13	Y13	Z13	X14	Y14	Z14	X15	Y15	Z15	X16	Y16	Z16	X17	Y17	Z17	X18	Y18	Z18	X19	Y19	Z19	

1	0.000																																																	-124.65288	529.97076	1901.45459							
2	0.010																																																	-126.34910	529.73871	1899.56006							
3	0.020																																																	-128.42169	530.41840	1897.57861							
4	0.030																																																	-130.69141	529.22992	1897.91858							
5	0.040																																																	-132.60941	530.06274	1894.66309							
6	0.050																																																	-134.86761	529.44019	1894.33716							
7	0.060																																		-142.51277	1171.87061	1532.65076													-137.32718	529.67609	1894.41956							
8	0.070																																		-140.75279	1172.51660	1530.70471													-139.14287	529.27393	1891.82910							
9	0.080																																		-145.33849	1173.24170	1527.32471													-141.52948	530.68530	1890.63635							
10	0.090																																		-144.16626	1174.36523	1524.51404													-143.58250	530.35529	1888.53931							
11	0.100																																		-147.72481	1173.69836	1521.55969													-146.00531	529.62585	1887.70874							
12	0.110																																		-146.22206	1176.70471	1518.70667													-148.53024	529.34454	1888.87451							
13	0.120																																		-148.92592	1176.12732	1515.03845													-151.10664	530.74017	1883.59644							
14	0.130																																		-147.75754	1178.26538	1511.43335													-153.56555	530.16223	1883.17786							
15	0.140																																		-150.10379	1177.65308	1507.54712													-156.71049	529.99298	1882.34216							
16	0.150																																		-148.05186	1178.80200	1502.92334													-159.42801	529.84357	1881.55457							
17	0.160																																		-151.86566	1178.99182	1500.69934													-162.55621	530.91772	1880.26343							
18	0.170																																		-151.83311	1179.93530	1497.59900													-165.29187	530.64148	1876.54077							
19	0.180																																		-153.13512	1179.16003	1495.29309													-168.88342	529.84906	1876.75256							
20	0.190																																		-154.18552	1179.57568	1491.17456													-171.89653	531.63123	1870.80347							
21	0.200																																		-154.84523	1178.95166	1488.26074													-175.19481	530.76117	1869.63391							
22	0.210																																		-155.36063	1179.34497	1483.79175													-178.73643	530.33154	1869.84937							
23	0.220																																		-157.06689	1179.82227	1482.93958													-181.50127	530.98273	1866.18677							
24	0.230																																		-156.79662	1179.41406	1478.74646													-185.19995	531.12415	1864.80969							
25	0.240																																		-155.80457	1179.07422	1476.78040													-188.08795	530.65936	1861.36230							
26	0.250																																		-156.59892	1178.05249	1472.36011													-191.18906	530.15771	1861.95728							
27	0.260																																		-156.02345	1178.23413	1468.78577													-194.41902	531.36475	1857.74353							
28	0.270																																		-160.39755	1175.40747	1467.60962													-197.32864	530.89929	1858.13086							
29	0.280																																		-161.22699	1174.39392	1465.05615													-200.34851	530.42920	1854.82483							
30	0.290																																		-162.14122	1175.20605	1461.75977													-203.39127	530.48120	1853.93091							
31	0.300																																		-164.05807	1174.06763	1458.50977													-206.34451	531.09076	1852.68127							
32	0.310																																		-164.43924	1174.14954	1456.45325													-208.49301	531.37598	1850.46301							
